<svg xmlns="http://www.w3.org/2000/svg" width="800" height="500" viewBox="0 0 800 500">
  <defs>
    <linearGradient id="bg" x1="0%" y1="0%" x2="100%" y2="100%">
      <stop offset="0%" style="stop-color:#2d3436"/>
      <stop offset="100%" style="stop-color:#2d3436dd"/>
    </linearGradient>
  </defs>
  <rect width="800" height="500" fill="url(#bg)"/>
  <!-- Browser chrome -->
  <rect x="40" y="30" width="720" height="440" rx="8" fill="#fff" opacity="0.05"/>
  <rect x="40" y="30" width="720" height="36" rx="8" fill="#fff" opacity="0.1"/>
  <circle cx="68" cy="48" r="5" fill="#ff5f57"/>
  <circle cx="88" cy="48" r="5" fill="#febc2e"/>
  <circle cx="108" cy="48" r="5" fill="#28c840"/>
  <rect x="180" y="40" width="300" height="16" rx="8" fill="#fff" opacity="0.15"/>
  <!-- Content area -->
  <rect x="80" y="100" width="200" height="12" rx="4" fill="#6c5ce7" opacity="0.8"/>
  <rect x="80" y="130" width="400" height="8" rx="4" fill="#fff" opacity="0.15"/>
  <rect x="80" y="148" width="350" height="8" rx="4" fill="#fff" opacity="0.12"/>
  <rect x="80" y="166" width="380" height="8" rx="4" fill="#fff" opacity="0.1"/>
  <!-- Hero block -->
  <rect x="80" y="200" width="640" height="120" rx="8" fill="#6c5ce7" opacity="0.2"/>
  <text x="400" y="265" font-family="Arial, sans-serif" font-size="28" font-weight="bold" fill="#fff" text-anchor="middle" opacity="0.9">Iambic Nana</text>
  <!-- Cards -->
  <rect x="80" y="345" width="195" height="100" rx="6" fill="#fff" opacity="0.08"/>
  <rect x="302" y="345" width="195" height="100" rx="6" fill="#fff" opacity="0.08"/>
  <rect x="524" y="345" width="195" height="100" rx="6" fill="#fff" opacity="0.08"/>
</svg>